<svg xmlns="http://www.w3.org/2000/svg" enable-background="new 0 0 47.5 47.5" viewBox="0 0 47.5 47.5"><defs><clipPath id="a"><path d="M0 38h38V0H0v38Z"/></clipPath></defs><g clip-path="url(#a)" transform="matrix(1.25 0 0 -1.25 0 47.5)"><path fill="#292f33" d="M0 0s4.687-1.807 6.761-.601C8.835.604 9.27 2.246 8.063 4.319 6.855 6.391 3.576 7.26 3.407 9.937c0 0-.264-4.319 1.977-5.787C8.556 2.07 4.939-.237 1.177.235-2.588.707 0 0 0 0" transform="translate(28.076 23.335)"/><path fill="#d99e82" d="M0 0c-.736-2.285-.349-6.011.794-6.378 1.141-.367 2.877 1.609 1.897 2.993C.794-.708 1.913 1.161 4.195.426c2.284-.735 8.686 1.146 10.194 1.922 1.508.772-4.56.79-7.211.383-2.651-.407-4.116-.038-5.302-.815C.872 1.258 0 0 0 0" transform="translate(3.688 14.287)"/><path fill="#d99e82" d="M0 0c1.38.986.593 3.799 2.96 3.408 2.366-.395 3.77-1.507 3.943 1.775.022.381.52-.013 1.317.614 8.218 6.462 1.05 6.288 1.05 6.288-2.762-1.974-5.698-5.114-4.733-6.509.507-.731-2.562-.79-3.745-.592-1.183.197-2.762-1.974-2.959-3.157C-2.363.646-1.379-.985 0 0" transform="translate(18.792 6.856)"/><path fill="#c1694f" d="M0 0c.006 1.129-1.757 4.602-5.294 4.602-3.6 0-5.998-1.199-8.397-1.199s-3.939-1.449-5.139 3.348c-.919 3.68-3.401 5.201-7 4 0 0-3.455 2.248-2.255 1.048.494-.494.706-.994.762-1.459-2.103-1.257-1.131-3.416-2.253-4.539-.848-.847-1.199-1.199-1.199-2.398 0-.991 1.629-1.15 2.875-.505.723 1.704.353 1.057 1.473 1.707 1.029.017 1.94.151 1.94 1.196 0 0 1.2 0 1.2-2.398 0-1.144-1.083-2.292.893-5.513 0 0 1.19-1.911.836-2.581-1.254-2.371-1.533-5.044-2.507-5.743-.977-.698.419-2.648.419-2.648 1.395-1.952 4.742-2.508 5.718-1.812.976.699.278 1.675-1.395 1.955-1.673.275-5.021.833-3.07 2.227 1.952 1.397 3.287 1.79 3.563 3.463.079.469 2 1 2 1s2-1 4.337.055c2.043.922 4.481 2.09 6.722.414l.069.039c-.713-1.535-.968-2.893-.275-3.477.683-.573-2.265-1.434-3.46-1.553-1.193-.123-2.147-2.628-2.027-3.821.121-1.193 1.748-2.7 2.82-1.387 1.074 1.314-2.107 3.162 1.714 4.254 2.307.66 4.034-.466 3.341 2.746-.081.374.068.786.693 1.586C.388-3.177-.008-1.13 0 0" transform="translate(31.83 20.249)"/><path fill="#292f33" d="M0 0c2.399 2.399 4.428 1.897 6.323 0 2.4-2.398 1.334-4.922 4.147-6.82 1.26-.85-2.74-.85-3.599 3.599C6.362-.588 3.488.677 0 0" transform="translate(5.27 30.67)"/></g></svg>